<?xml version="1.0" encoding="utf-8"?>
<!-- Generator: Adobe Illustrator 18.0.0, SVG Export Plug-In . SVG Version: 6.00 Build 0)  -->
<!DOCTYPE svg PUBLIC "-//W3C//DTD SVG 1.1//EN" "http://www.w3.org/Graphics/SVG/1.1/DTD/svg11.dtd">
<svg version="1.1" id="Layer_1" xmlns="http://www.w3.org/2000/svg" xmlns:xlink="http://www.w3.org/1999/xlink" x="0px" y="0px"
	 viewBox="0 0 95.7 24.4" enable-background="new 0 0 95.7 24.4" xml:space="preserve">
<g>
	<g>
		<g>
			<g>
				<path fill="#6C93AD" d="M27.9,9.7h-2V8.5h5.5v1.2h-2v7.6h-1.4V9.7z"/>
				<path fill="#6C93AD" d="M31.6,10.8h1.2v1c0.4-0.8,1.1-1.1,1.9-1.1v1.2h-0.1c-1.2,0-1.8,0.6-1.8,1.9v3.5h-1.2V10.8z"/>
				<path fill="#6C93AD" d="M42.1,17.3h-1.2v-1.1c-0.5,0.9-1.4,1.3-2.4,1.3c-2.1,0-3.3-1.6-3.3-3.4c0-2,1.4-3.4,3.3-3.4
					c1.3,0,2.1,0.7,2.4,1.3v-1.1h1.2V17.3z M36.3,14.1c0,1,0.7,2.3,2.3,2.3c1,0,1.7-0.5,2-1.3c0.1-0.3,0.2-0.6,0.2-1
					c0-0.3,0-0.7-0.2-1c-0.3-0.8-1-1.3-2.1-1.3C37.2,11.8,36.3,12.8,36.3,14.1L36.3,14.1z"/>
				<path fill="#6C93AD" d="M43.7,10.8h1.2v1c0.3-0.7,1-1.2,2.2-1.2c2.1,0,2.6,1.5,2.6,2.9v3.8h-1.3v-3.5c0-1.2-0.5-2-1.7-2
					c-1.2,0-1.8,0.8-1.8,1.9v3.6h-1.2V10.8z"/>
				<path fill="#6C93AD" d="M54.1,12.5c0-0.5-0.3-0.9-0.9-0.9c-0.6,0-0.9,0.4-0.9,0.8c0,0.5,0.5,0.8,1.2,0.9c1,0.3,2.1,0.6,2.1,2
					c0,1.3-1,2.1-2.3,2.1c-1,0-2.3-0.6-2.4-2.1h1.2c0,0.8,0.7,1.1,1.1,1.1c0.6,0,1.1-0.4,1.1-1c0-0.6-0.5-0.9-1.7-1.2
					C51.7,14,51,13.6,51,12.6c0-1.2,1-2,2.2-2c0.9,0,2.1,0.4,2.2,1.9H54.1z"/>
				<path fill="#6C93AD" d="M56.8,10.8H58v1.1c0.5-0.8,1.3-1.3,2.5-1.3c2.2,0,3.3,1.9,3.3,3.5c0,1.8-1.3,3.4-3.3,3.4
					c-1.3,0-2.1-0.7-2.4-1.3v1.1v2.4h-1.2V10.8z M62.5,14c0-1.1-0.8-2.3-2.3-2.3c-0.6,0-1.2,0.3-1.6,0.7c-0.4,0.4-0.6,1-0.6,1.6
					c0,0.6,0.2,1.2,0.6,1.6c0.4,0.4,1,0.7,1.6,0.7C61.5,16.3,62.5,15.3,62.5,14L62.5,14z"/>
				<path fill="#6C93AD" d="M71.6,17.3h-1.2v-1.1C69.9,17,69,17.5,68,17.5c-2.1,0-3.3-1.6-3.3-3.4c0-2,1.4-3.4,3.3-3.4
					c1.3,0,2.1,0.7,2.4,1.3v-1.1h1.2V17.3z M65.9,14.1c0,1,0.7,2.3,2.3,2.3c1,0,1.7-0.5,2-1.3c0.1-0.3,0.2-0.6,0.2-1
					c0-0.3,0-0.7-0.2-1c-0.3-0.8-1-1.3-2.1-1.3C66.8,11.8,65.9,12.8,65.9,14.1L65.9,14.1z"/>
				<path fill="#6C93AD" d="M73.2,10.8h1.2v1c0.4-0.8,1.1-1.1,1.9-1.1v1.2h-0.1c-1.2,0-1.8,0.6-1.8,1.9v3.5h-1.2V10.8z"/>
				<path fill="#6C93AD" d="M83.7,17.3h-1.2v-1.1C82,17,81.1,17.5,80,17.5c-2.1,0-3.3-1.6-3.3-3.4c0-2,1.4-3.4,3.3-3.4
					c1.3,0,2.1,0.7,2.4,1.3v-1.1h1.2V17.3z M78,14.1c0,1,0.7,2.3,2.3,2.3c1,0,1.7-0.5,2-1.3c0.1-0.3,0.2-0.6,0.2-1
					c0-0.3,0-0.7-0.2-1c-0.3-0.8-1-1.3-2.1-1.3C78.8,11.8,78,12.8,78,14.1L78,14.1z"/>
				<path fill="#6C93AD" d="M85.3,10.8h1.2v1c0.3-0.7,1-1.2,2.2-1.2c2.1,0,2.6,1.5,2.6,2.9v3.8H90v-3.5c0-1.2-0.5-2-1.7-2
					c-1.2,0-1.8,0.8-1.8,1.9v3.6h-1.2V10.8z"/>
				<path fill="#6C93AD" d="M93.2,11.8H92v-1h1.2V8.5h1.2v2.3h1.3v1h-1.3v5.5h-1.2V11.8z"/>
			</g>
		</g>
	</g>
	<g>
		<path fill="#6C93AD" d="M11.2,1C5.6,1,1,5.6,1,11.2c0,5.6,4.6,10.2,10.2,10.2c5.6,0,10.2-4.6,10.2-10.2C21.4,5.6,16.8,1,11.2,1z
			 M11.2,20.4c-5.1,0-9.2-4.1-9.2-9.2C2,6.1,6.1,2,11.2,2c5.1,0,9.2,4.1,9.2,9.2C20.4,16.3,16.3,20.4,11.2,20.4z"/>
		<path fill="#264653" d="M20,8.5c-0.4-0.2-1-0.3-1.8-0.4c-0.3,0-0.7-0.1-1-0.1c-1.8-0.2-2.5-0.7-2.5-0.7l-0.1-0.1l0,0
			c-0.3-1.5-1.6-2.6-3.1-2.7c-0.1,0-0.2,0-0.3,0c-0.1,0-0.2,0-0.3,0C9.3,4.7,8.1,5.8,7.7,7.2l0,0L7.6,7.3c0,0-1,0.6-3.5,0.8
			C3.4,8.2,2.8,8.3,2.4,8.5C2.1,9.3,2,10.2,2,11.2c0,4,2.6,7.4,6.2,8.7L8,12.5l2-1.6l1,1.2l-1.1,8.1c0,0,0,0,0,0L9.6,22h0l1.6,2.4
			l1.6-2.4l-0.2-1.7c0,0,0,0,0,0l-1.1-8.2l1-1.2l2,1.6l-0.2,7.4c3.6-1.2,6.2-4.7,6.2-8.7C20.4,9.6,20,8.5,20,8.5z M8,12.1L7.9,7.9
			l0.2-0.4h0.2c0,1.3,0.9,2.4,2.1,2.8L8,12.1z M11.9,5.7c0,0-0.1,0-0.1,0c0,0-0.1,0-0.1,0c-0.1,0-0.1,0-0.2,0c0,0,0,0-0.1,0
			c-0.1,0-0.2,0-0.2,0c-0.1,0-0.2,0-0.2,0c0,0-0.1,0-0.1,0c-0.1,0-0.1,0-0.2,0c0,0-0.1,0-0.1,0c0,0-0.1,0-0.1,0c0,0-0.1,0-0.1,0
			c0,0-0.1,0-0.1,0c0,0-0.1,0-0.1,0c0,0-0.1,0-0.1,0.1c0,0-0.1,0-0.1,0.1c0,0-0.1,0-0.1,0.1c0,0-0.1,0-0.1,0.1c0,0,0,0-0.1,0.1
			c0,0-0.1,0.1-0.1,0.1c0,0,0,0-0.1,0c0,0-0.1,0.1-0.1,0.1c0,0,0,0,0,0C9.2,6.6,9,6.8,8.9,7c0,0,0,0,0,0c0,0.1-0.1,0.1-0.1,0.2
			c0,0,0,0,0,0C8.7,7.5,8.7,7.8,8.7,8.1c0,0,0,0.1,0,0.1C8.6,8,8.6,7.7,8.6,7.4c0-1.4,1.2-2.6,2.6-2.6c1.4,0,2.6,1.2,2.6,2.6
			c0,0.3,0,0.5-0.1,0.8c0,0,0-0.1,0-0.1c0-0.3-0.1-0.6-0.2-0.9c0,0,0,0,0,0c0-0.1,0-0.1-0.1-0.2c0,0,0,0,0,0
			c-0.1-0.2-0.2-0.4-0.4-0.6c0,0,0,0,0,0c0,0-0.1-0.1-0.1-0.1c0,0,0,0-0.1,0c0,0-0.1-0.1-0.1-0.1c0,0,0,0-0.1-0.1c0,0-0.1,0-0.1-0.1
			c0,0-0.1,0-0.1-0.1c0,0-0.1-0.1-0.1-0.1c0,0-0.1,0-0.1-0.1c0,0-0.1,0-0.1,0C12,5.8,12,5.7,11.9,5.7C11.9,5.7,11.9,5.7,11.9,5.7z
			 M14.3,12.1L12,10.2c1.2-0.3,2.1-1.5,2.1-2.8h0.2l0.2,0.4L14.3,12.1z"/>
	</g>
</g>
</svg>
