<svg xmlns="http://www.w3.org/2000/svg" width="160" height="41"><g fill="#fff"><path d="M45.45 14.699h-3.38v-2.028h9.292v2.028h-3.378v12.839h-2.366v-12.839h-.168zM51.7 16.558h2.027v1.689c.675-1.352 1.859-1.859 3.21-1.859v2.028h-.169c-2.027 0-3.041 1.013-3.041 3.209v5.913h-2.027v-10.98zM69.44 27.539h-2.026v-1.857c-.845 1.521-2.366 2.196-4.055 2.196-3.549 0-5.575-2.704-5.575-5.745 0-3.378 2.365-5.744 5.575-5.744 2.196 0 3.548 1.183 4.055 2.197v-1.859h2.026v10.812zm-9.799-5.407c0 1.69 1.183 3.885 3.887 3.885 1.689 0 2.872-.844 3.378-2.195.168-.508.338-1.015.338-1.69 0-.506 0-1.182-.338-1.689-.507-1.352-1.689-2.196-3.548-2.196-2.196 0-3.717 1.69-3.717 3.885zM72.144 16.558h2.027v1.689c.507-1.183 1.69-2.028 3.717-2.028 3.547 0 4.392 2.535 4.392 4.9v6.419h-2.196v-5.913c0-2.027-.845-3.379-2.873-3.379-2.027 0-3.041 1.352-3.041 3.211v6.081h-2.027v-10.98zM89.716 19.43c0-.844-.508-1.521-1.521-1.521-1.014 0-1.521.677-1.521 1.353 0 .845.846 1.351 2.028 1.521 1.69.506 3.548 1.013 3.548 3.378 0 2.197-1.689 3.548-3.885 3.548-1.69 0-3.887-1.014-4.056-3.548h2.028c0 1.351 1.184 1.857 1.859 1.857 1.013 0 1.859-.674 1.859-1.689 0-1.014-.846-1.521-2.873-2.026-1.521-.338-2.704-1.014-2.704-2.704 0-2.028 1.689-3.379 3.717-3.379 1.521 0 3.548.676 3.717 3.21h-2.196zM94.277 16.558h2.027v1.858c.845-1.353 2.196-2.197 4.225-2.197 3.716 0 5.575 3.21 5.575 5.913 0 3.041-2.196 5.745-5.575 5.745-2.196 0-3.548-1.183-4.056-2.196v5.913h-2.027v-15.036h-.169zm9.63 5.406c0-1.858-1.353-3.886-3.886-3.886-1.013 0-2.028.508-2.703 1.184-.676.676-1.014 1.689-1.014 2.703 0 1.013.338 2.028 1.014 2.703.675.676 1.69 1.183 2.703 1.183 2.197-.001 3.886-1.691 3.886-3.887zM119.282 27.539h-2.028v-1.857c-.845 1.351-2.366 2.196-4.056 2.196-3.547 0-5.575-2.704-5.575-5.745 0-3.378 2.365-5.744 5.575-5.744 2.197 0 3.549 1.183 4.056 2.197v-1.859h2.028v10.812zm-9.63-5.407c0 1.69 1.183 3.885 3.885 3.885 1.689 0 2.873-.844 3.379-2.195.169-.508.338-1.015.338-1.69 0-.506 0-1.182-.338-1.689-.507-1.352-1.69-2.196-3.548-2.196-2.196 0-3.716 1.69-3.716 3.885zM121.986 16.558h2.026v1.689c.676-1.352 1.858-1.859 3.21-1.859v2.028h-.169c-2.027 0-3.041 1.013-3.041 3.209v5.913h-2.026v-10.98zM139.725 27.539h-2.027v-1.857c-.845 1.351-2.366 2.196-4.223 2.196-3.548 0-5.577-2.704-5.577-5.745 0-3.378 2.366-5.744 5.577-5.744 2.195 0 3.547 1.183 4.054 2.197v-1.859h2.028v10.812h.168zm-9.63-5.407c0 1.69 1.184 3.885 3.887 3.885 1.688 0 2.872-.844 3.378-2.195.169-.508.338-1.015.338-1.69 0-.506 0-1.182-.338-1.689-.506-1.352-1.689-2.196-3.547-2.196-2.365 0-3.718 1.69-3.718 3.885zM142.429 16.558h2.028v1.689c.507-1.183 1.689-2.028 3.717-2.028 3.548 0 4.393 2.535 4.393 4.9v6.419h-2.197v-5.913c0-2.027-.845-3.379-2.872-3.379-2.028 0-3.041 1.352-3.041 3.211v6.081h-2.028v-10.98zM155.777 18.247h-2.028v-1.689h2.028v-3.887h2.026v3.887h2.197v1.689h-2.197v9.292h-2.026v-9.292z"/></g><path fill="#fff" d="M34.467 17.233c0-9.462-7.772-17.233-17.234-17.233s-17.233 7.771-17.233 17.233c0 8.611 6.443 15.802 14.732 17.029l-.203 1.219 2.704 4.054 2.704-4.054-.145-1.228c8.262-1.253 14.675-8.43 14.675-17.02zm-18.755-9.293h-.169s-.167 0-.167.169c0 0-.169 0-.169.168 0 0-.17 0-.17.169 0 0-.168 0-.168.17l-.169.168-.17.17h-.168l-.168.168c-.338.338-.676.676-.846 1.014l-.169.338c-.168.507-.168 1.014-.168 1.521v.169c-.169-.338-.169-.845-.169-1.352 0-2.366 2.027-4.392 4.393-4.392s4.393 2.026 4.393 4.392c0 .507 0 .846-.168 1.352v-.169c0-.507-.169-1.014-.338-1.521 0-.169 0-.169-.169-.338-.169-.338-.338-.676-.677-1.014l-.168-.168h-.168l-.169-.169-.169-.168s-.168 0-.168-.17c0 0-.169 0-.169-.169l-.168-.168s-.169 0-.169-.169h-.169c-.169.169-.169 0-.338 0h-2.709zm.171 7.772l-4.056 3.042-.169-7.096.339-.676h.336c0 2.196 1.522 4.055 3.55 4.73zm6.25-4.9h.338l.338.676-.338 7.265-3.886-3.211c2.028-.505 3.548-2.532 3.548-4.73zm-4.393 7.942l1.69-2.028 3.379 2.704-.336 12.43c-.922.328-1.884.57-2.878.72l-1.855-13.826zm-.507-17.065c7.027 0 12.928 4.608 14.867 10.981-.676-.337-1.689-.506-3.04-.675l-1.69-.169c-3.041-.338-4.223-1.183-4.223-1.183l-.169-.168c-.507-2.535-2.704-4.394-5.238-4.562h-1.013c-2.704.338-4.73 2.197-5.406 4.562l-.17.168s-1.689 1.015-5.913 1.352c-1.182.169-2.195.337-2.87.675 1.938-6.372 7.838-10.981 14.865-10.981zm-15.045 19.403c1.284 4.939 4.969 8.931 9.731 10.741-4.793-1.734-8.462-5.74-9.731-10.741zm-.427-2.437l.072.593-.072-.593zm.183 1.32c.05.274.103.548.167.817-.063-.27-.119-.542-.167-.817zm10.221 11.947l-.338-12.492 3.379-2.704 1.689 2.028-1.859 13.685-.027.162c-.981-.14-1.932-.366-2.844-.679z"/></svg>